<svg id="icon-anchor" viewBox="0 0 30 28">
          <title>Port</title>
          <path d="M15 4c0-0.547-0.453-1-1-1s-1 0.453-1 1 0.453 1 1 1 1-0.453 1-1zM28 18.5v5.5c0 0.203-0.125 0.391-0.313 0.469-0.063 0.016-0.125 0.031-0.187 0.031-0.125 0-0.25-0.047-0.359-0.141l-1.453-1.453c-2.453 2.953-6.859 4.844-11.688 4.844s-9.234-1.891-11.688-4.844l-1.453 1.453c-0.094 0.094-0.234 0.141-0.359 0.141-0.063 0-0.125-0.016-0.187-0.031-0.187-0.078-0.313-0.266-0.313-0.469v-5.5c0-0.281 0.219-0.5 0.5-0.5h5.5c0.203 0 0.391 0.125 0.469 0.313s0.031 0.391-0.109 0.547l-1.563 1.563c1.406 1.891 4.109 3.266 7.203 3.687v-10.109h-3c-0.547 0-1-0.453-1-1v-2c0-0.547 0.453-1 1-1h3v-2.547c-1.188-0.688-2-1.969-2-3.453 0-2.203 1.797-4 4-4s4 1.797 4 4c0 1.484-0.812 2.766-2 3.453v2.547h3c0.547 0 1 0.453 1 1v2c0 0.547-0.453 1-1 1h-3v10.109c3.094-0.422 5.797-1.797 7.203-3.687l-1.563-1.563c-0.141-0.156-0.187-0.359-0.109-0.547s0.266-0.313 0.469-0.313h5.5c0.281 0 0.5 0.219 0.5 0.5z"></path>
        </svg>